<svg width="37" height="37" viewBox="0 0 37 37" fill="none" xmlns="http://www.w3.org/2000/svg">
<path d="M20.0032 23.8758L12.2876 25.2647L13.5735 17.4462L28.3104 2.76076C28.5495 2.5197 28.8339 2.32837 29.1473 2.19779C29.4607 2.06722 29.7969 2 30.1364 2C30.4759 2 30.8121 2.06722 31.1255 2.19779C31.4389 2.32837 31.7233 2.5197 31.9624 2.76076L34.6886 5.48694C34.9297 5.72603 35.121 6.01048 35.2516 6.32389C35.3822 6.6373 35.4494 6.97346 35.4494 7.31297C35.4494 7.65249 35.3822 7.98865 35.2516 8.30206C35.121 8.61546 34.9297 8.89992 34.6886 9.139L20.0032 23.8758Z" stroke="#217C72" stroke-width="3" stroke-linecap="round" stroke-linejoin="round"/>
<path d="M31.5766 25.1617V32.8774C31.5766 33.5595 31.3056 34.2136 30.8233 34.696C30.341 35.1783 29.6868 35.4492 29.0047 35.4492H4.57187C3.88977 35.4492 3.2356 35.1783 2.75328 34.696C2.27096 34.2136 2 33.5595 2 32.8774V8.44456C2 7.76245 2.27096 7.10829 2.75328 6.62597C3.2356 6.14365 3.88977 5.87268 4.57187 5.87268H12.2875" stroke="#217C72" stroke-width="3" stroke-linecap="round" stroke-linejoin="round"/>
</svg>
