<svg width="37" height="40" viewBox="0 0 37 40" fill="none" xmlns="http://www.w3.org/2000/svg">
<path d="M2 10.2501H35" stroke="#217C72" stroke-width="3" stroke-linecap="round" stroke-linejoin="round"/>
<path d="M6.125 10.2501H30.875V35.0001C30.875 35.7294 30.5853 36.4289 30.0695 36.9446C29.5538 37.4603 28.8543 37.7501 28.125 37.7501H8.875C8.14565 37.7501 7.44618 37.4603 6.93046 36.9446C6.41473 36.4289 6.125 35.7294 6.125 35.0001V10.2501Z" stroke="#217C72" stroke-width="3" stroke-linecap="round" stroke-linejoin="round"/>
<path d="M11.625 10.25V8.875C11.625 7.05164 12.3493 5.30295 13.6386 4.01364C14.928 2.72433 16.6766 2 18.5 2C20.3234 2 22.072 2.72433 23.3614 4.01364C24.6507 5.30295 25.375 7.05164 25.375 8.875V10.25" stroke="#217C72" stroke-width="3" stroke-linecap="round" stroke-linejoin="round"/>
<path d="M14.375 15.7501V30.8751" stroke="#217C72" stroke-width="3" stroke-linecap="round" stroke-linejoin="round"/>
<path d="M22.625 15.7501V30.8751" stroke="#217C72" stroke-width="3" stroke-linecap="round" stroke-linejoin="round"/>
</svg>
